Hanif_Shallow_7_5_grf.mot
version=1
nRows=47
nColumns=19
inDegrees=yes
endheader
time	right_ground_force_vx	right_ground_force_vy	right_ground_force_vz	right_ground_force_px	right_ground_force_py	right_ground_force_pz	right_ground_torque_x	right_ground_torque_y	right_ground_torque_z	left_ground_force_vx	left_ground_force_vy	left_ground_force_vz	left_ground_force_px	left_ground_force_py	left_ground_force_pz	left_ground_torque_x	left_ground_torque_y	left_ground_torque_z
2.195000	11.210300	411.965000	79.653200	0.181737	0.000000	-1.437880	-27.893300	8.416110	-6.325460	-8.208230	358.862000	-73.212300	0.203906	0.000000	-0.977809	26.947200	-3.521320	2.303640
2.200000	10.131400	411.035000	79.377300	0.182206	0.000000	-1.437420	-28.038300	8.272010	-6.123420	-8.336780	357.374000	-73.377900	0.204188	0.000000	-0.977863	26.859700	-3.593470	2.425770
2.205000	10.184600	411.265000	78.866700	0.182336	0.000000	-1.437090	-28.187600	8.264900	-6.081560	-8.331290	356.309000	-73.299000	0.204488	0.000000	-0.978013	26.835300	-3.651970	2.546600
2.210000	10.107800	409.672000	78.795900	0.182820	0.000000	-1.437470	-27.921500	8.198820	-5.855000	-8.435300	354.505000	-72.665400	0.204393	0.000000	-0.977567	26.542500	-3.590760	2.487880
2.215000	10.419100	408.618000	78.682500	0.183147	0.000000	-1.436860	-28.096800	8.055330	-5.729570	-8.866990	350.938000	-72.889600	0.204648	0.000000	-0.977883	26.398600	-3.716710	2.611490
2.220000	10.307800	407.508000	78.874500	0.183033	0.000000	-1.436920	-27.998300	8.052840	-5.752470	-9.051670	351.852000	-72.438800	0.204761	0.000000	-0.977510	26.335000	-3.590590	2.624320
2.225000	9.887020	404.329000	78.813100	0.183425	0.000000	-1.436540	-27.937600	7.968710	-5.537060	-9.070140	350.398000	-72.829800	0.205110	0.000000	-0.977946	26.381200	-3.597880	2.757090
2.230000	10.613400	402.395000	78.781500	0.183198	0.000000	-1.436570	-27.780400	8.007840	-5.596600	-9.232760	346.918000	-72.616300	0.204926	0.000000	-0.977437	25.946200	-3.561890	2.673160
2.235000	10.252400	399.020000	78.809300	0.183288	0.000000	-1.436620	-27.536600	7.764760	-5.535590	-9.790040	345.773000	-72.421200	0.205499	0.000000	-0.978065	26.089200	-3.591630	2.890940
2.240000	10.141500	396.403000	78.065800	0.183360	0.000000	-1.436020	-27.593200	7.705030	-5.474150	-10.012000	343.320000	-72.155600	0.205235	0.000000	-0.977799	25.815500	-3.516410	2.772980
2.245000	10.123700	394.194000	77.229800	0.183775	0.000000	-1.436010	-27.439400	7.746530	-5.262410	-9.903940	341.805000	-72.178000	0.205860	0.000000	-0.978049	25.787400	-3.506560	2.989610
2.250000	9.753460	390.306000	76.803200	0.183336	0.000000	-1.435410	-27.409500	7.660930	-5.384010	-10.481200	338.281000	-71.996700	0.205827	0.000000	-0.977706	25.418000	-3.520110	2.976160
2.255000	8.941550	389.927000	76.702300	0.183987	0.000000	-1.435300	-27.440600	7.475850	-5.139230	-10.226500	336.937000	-71.809200	0.206626	0.000000	-0.977391	25.209000	-3.498730	3.241630
2.260000	8.545150	387.588000	75.893400	0.184053	0.000000	-1.435540	-27.184700	7.393440	-5.087930	-10.335000	333.898000	-71.184400	0.206844	0.000000	-0.977447	25.003300	-3.451870	3.289020
2.265000	8.295970	381.916000	74.994100	0.184598	0.000000	-1.434630	-27.137600	7.300840	-4.791880	-10.902800	330.764000	-71.045300	0.206955	0.000000	-0.977137	24.677400	-3.416990	3.314040
2.270000	7.530490	381.359000	74.691100	0.184844	0.000000	-1.435160	-26.907000	7.133870	-4.708820	-11.193900	328.423000	-70.566500	0.207181	0.000000	-0.977330	24.573800	-3.416470	3.380110
2.275000	7.357150	376.597000	74.143100	0.185498	0.000000	-1.434760	-26.722400	7.061830	-4.385970	-11.815900	325.281000	-70.458400	0.206861	0.000000	-0.976820	24.182500	-3.330560	3.246970
2.280000	7.044010	373.730000	73.321100	0.185638	0.000000	-1.434760	-26.521200	7.041930	-4.291080	-11.599700	323.231000	-70.216200	0.207963	0.000000	-0.977268	24.175400	-3.305460	3.600420
2.285000	7.239510	371.690000	73.602000	0.185847	0.000000	-1.434160	-26.596100	6.936440	-4.196420	-12.016500	320.104000	-69.801500	0.207991	0.000000	-0.976867	23.824600	-3.333860	3.600070
2.290000	7.049490	369.519000	73.640200	0.186238	0.000000	-1.433920	-26.534300	6.877530	-4.017980	-12.453300	318.849000	-69.679600	0.208554	0.000000	-0.976312	23.560600	-3.233240	3.763680
2.295000	7.023540	366.023000	73.298100	0.186090	0.000000	-1.434010	-26.248500	6.832890	-4.028670	-12.719500	314.247000	-69.224600	0.208661	0.000000	-0.976453	23.272700	-3.168080	3.757400
2.300000	7.423470	363.307000	73.566700	0.186780	0.000000	-1.433340	-26.290600	6.808060	-3.730410	-12.736200	311.591000	-68.602600	0.208796	0.000000	-0.975998	22.936200	-3.129380	3.767250
2.305000	7.567460	361.061000	72.552400	0.186528	0.000000	-1.434330	-25.764500	6.836340	-3.795760	-12.937700	307.775000	-68.431900	0.209131	0.000000	-0.976364	22.773900	-3.048280	3.837980
2.310000	8.019240	355.170000	72.370700	0.186733	0.000000	-1.432970	-25.821500	6.690340	-3.663650	-12.865900	303.542000	-67.887400	0.209118	0.000000	-0.976426	22.482600	-3.029070	3.794820
2.315000	7.951900	354.047000	72.241500	0.186587	0.000000	-1.433350	-25.605400	6.758290	-3.685320	-13.639500	300.656000	-67.805000	0.210360	0.000000	-0.976667	22.359500	-2.946800	4.164310
2.320000	8.013440	349.364000	72.023000	0.186864	0.000000	-1.432760	-25.469000	6.655940	-3.533140	-13.460900	297.986000	-67.491300	0.210200	0.000000	-0.976853	22.212600	-2.864180	4.069360
2.325000	7.864500	345.400000	71.048800	0.187328	0.000000	-1.432220	-25.367600	6.555170	-3.333040	-13.780800	295.538000	-66.971000	0.210620	0.000000	-0.976581	21.956700	-2.792320	4.162460
2.330000	7.305480	343.134000	70.712000	0.187673	0.000000	-1.432820	-25.001200	6.525280	-3.174970	-14.175500	291.659000	-66.692600	0.210749	0.000000	-0.977458	21.934900	-2.720620	4.162390
2.335000	7.241220	338.972000	70.139900	0.187814	0.000000	-1.433020	-24.631500	6.376850	-3.097580	-14.069700	291.691000	-66.219800	0.211674	0.000000	-0.977187	21.858100	-2.712040	4.433300
2.340000	7.037760	338.091000	69.451300	0.187786	0.000000	-1.432540	-24.732400	6.296910	-3.116430	-14.121100	288.995000	-66.368800	0.211916	0.000000	-0.977415	21.723800	-2.627850	4.470190
2.345000	7.081780	335.427000	69.385000	0.188111	0.000000	-1.432030	-24.709700	6.246230	-2.974950	-14.365600	286.487000	-66.098800	0.212435	0.000000	-0.977427	21.547900	-2.607230	4.600220
2.350000	6.951000	332.631000	69.178800	0.189070	0.000000	-1.431650	-24.628800	6.117270	-2.628020	-14.656500	284.484000	-65.373100	0.213405	0.000000	-0.978017	21.572700	-2.520750	4.846860
2.355000	6.654290	327.913000	68.249600	0.189232	0.000000	-1.431440	-24.348800	6.133240	-2.510530	-14.090000	281.998000	-65.157500	0.213667	0.000000	-0.978028	21.378200	-2.466030	4.873810
2.360000	6.586920	326.594000	67.887100	0.189863	0.000000	-1.431610	-24.198400	6.009620	-2.306490	-14.455800	279.747000	-64.846200	0.214220	0.000000	-0.977587	21.092400	-2.390770	4.995950
2.365000	6.407940	321.792000	66.689400	0.189773	0.000000	-1.431510	-23.874700	5.980650	-2.291770	-14.738600	278.565000	-64.248800	0.214824	0.000000	-0.978637	21.299000	-2.263970	5.128270
2.370000	7.310630	317.299000	66.789700	0.189805	0.000000	-1.430770	-23.761600	5.893750	-2.253480	-14.683500	278.044000	-64.379600	0.214650	0.000000	-0.979021	21.365500	-2.262130	5.074070
2.375000	7.347610	312.900000	65.868000	0.190124	0.000000	-1.430290	-23.580200	5.813830	-2.120280	-15.209400	276.549000	-63.407800	0.215299	0.000000	-0.978966	21.243600	-2.153510	5.212080
2.380000	7.316830	310.888000	65.394300	0.190266	0.000000	-1.430410	-23.392800	5.765290	-2.063580	-15.264500	273.310000	-63.490000	0.216047	0.000000	-0.978636	20.907400	-2.040770	5.364850
2.385000	7.279810	305.399000	64.736600	0.190924	0.000000	-1.430500	-22.945400	5.794450	-1.784650	-15.377700	270.755000	-63.049500	0.216931	0.000000	-0.979471	20.941800	-1.928230	5.555670
2.390000	7.612600	302.400000	64.382200	0.191365	0.000000	-1.430120	-22.835600	5.582280	-1.664030	-15.459500	269.136000	-62.578000	0.216926	0.000000	-0.979532	20.835500	-1.899610	5.518570
2.395000	7.451470	299.501000	64.131200	0.191880	0.000000	-1.429730	-22.735000	5.441320	-1.500150	-15.606100	267.240000	-62.453300	0.217770	0.000000	-0.980024	20.827200	-1.853810	5.722240
2.400000	7.715840	298.454000	64.012800	0.192504	0.000000	-1.429960	-22.583200	5.417960	-1.304000	-15.665900	265.803000	-62.093900	0.218578	0.000000	-0.979907	20.684100	-1.744510	5.896470
2.405000	8.102780	296.096000	64.003300	0.192892	0.000000	-1.429610	-22.500900	5.425510	-1.163950	-15.430900	266.119000	-61.740600	0.218707	0.000000	-0.979800	20.669800	-1.659660	5.906150
2.410000	8.063510	295.124000	63.945800	0.193700	0.000000	-1.428900	-22.638100	5.318120	-0.928939	-15.369300	265.208000	-61.698100	0.219944	0.000000	-0.980781	20.860500	-1.584730	6.222360
2.415000	8.168850	293.184000	63.761100	0.193776	0.000000	-1.428880	-22.492500	5.213270	-0.914177	-15.349900	264.124000	-61.120200	0.220550	0.000000	-0.980849	20.792000	-1.508400	6.344010
2.420000	8.247450	290.653000	63.734400	0.195131	0.000000	-1.428000	-22.552400	5.098800	-0.506081	-15.366300	263.876000	-61.109500	0.221180	0.000000	-0.981010	20.809000	-1.356180	6.480440
2.425000	8.243730	290.529000	63.076300	0.196172	0.000000	-1.428760	-22.322300	5.055310	-0.205234	-15.490700	263.010000	-60.836800	0.221450	0.000000	-0.981336	20.827800	-1.297040	6.524120
